<svg width="321" height="77" viewBox="0 0 321 77" fill="none" xmlns="http://www.w3.org/2000/svg">
<path d="M155.247 65.7142C116.727 65.7142 61.8655 104.306 -6.74505e-06 38.7622C-6.74505e-06 -4.78161 79.8212 0.170002 155.247 0.170002C230.673 0.170002 321 -4.78161 321 38.7622C321 82.3059 193.767 65.7142 155.247 65.7142Z" fill="#4D708A" fill-opacity="0.2"/>
<path d="M155.247 65.2142C145.628 65.2142 135.011 67.6034 123.605 70.1702L123.329 70.2322C111.798 72.8271 99.4347 75.5931 86.3505 76.3179C60.2654 77.763 31.2764 71.0985 0.500549 38.5639C0.560608 27.9704 5.43829 20.3248 13.9241 14.7807C22.4936 9.18186 34.7411 5.73134 49.4097 3.63213C73.2852 0.215318 103.398 0.398035 134.128 0.584496C141.158 0.627151 148.22 0.670002 155.247 0.670002C162.2 0.670002 169.277 0.628036 176.395 0.585822C207.918 0.398884 240.265 0.207061 266.343 3.63291C282.328 5.73283 295.896 9.18566 305.455 14.7934C314.987 20.3854 320.5 28.0943 320.5 38.7622C320.5 49.3277 312.808 56.3307 300.347 60.8737C287.893 65.4136 270.85 67.4203 252.551 68.0674C234.262 68.7141 214.764 68.0019 197.422 67.1269C192.62 66.8846 187.981 66.6297 183.579 66.3878C172.096 65.7568 162.221 65.2142 155.247 65.2142Z" stroke="#4D708A" stroke-opacity="0.3"/>
</svg>
