<svg width="25" height="636" viewBox="0 0 25 636" fill="none" xmlns="http://www.w3.org/2000/svg">
<g filter="url(#filter0_d_42_44)">
<path d="M12.1216 0.586456C7.7033 0.586456 4.12158 4.16818 4.12158 8.58646C4.12158 13.0047 7.7033 16.5865 12.1216 16.5865C16.5399 16.5865 20.1216 13.0047 20.1216 8.58646C20.1216 4.16818 16.5399 0.586456 12.1216 0.586456ZM12.1216 611.251C7.70328 611.251 4.12156 614.833 4.12156 619.251C4.12156 623.669 7.70328 627.251 12.1216 627.251C16.5398 627.251 20.1216 623.669 20.1216 619.251C20.1216 614.833 16.5398 611.251 12.1216 611.251ZM10.6216 8.58646L10.6216 13.5112L13.6216 13.5112L13.6216 8.58646L10.6216 8.58646ZM10.6216 23.3606L10.6216 33.21L13.6216 33.21L13.6216 23.3606L10.6216 23.3606ZM10.6216 43.0595L10.6216 52.9089L13.6216 52.9089L13.6216 43.0595L10.6216 43.0595ZM10.6216 62.7583L10.6216 72.6078L13.6216 72.6078L13.6216 62.7583L10.6216 62.7583ZM10.6216 82.4572L10.6216 92.3066L13.6216 92.3066L13.6216 82.4572L10.6216 82.4572ZM10.6216 102.156L10.6216 112.005L13.6216 112.005L13.6216 102.156L10.6216 102.156ZM10.6216 121.855L10.6216 131.704L13.6216 131.704L13.6216 121.855L10.6216 121.855ZM10.6216 141.554L10.6216 151.403L13.6216 151.403L13.6216 141.554L10.6216 141.554ZM10.6216 161.253L10.6216 171.102L13.6216 171.102L13.6216 161.253L10.6216 161.253ZM10.6216 180.951L10.6216 190.801L13.6216 190.801L13.6216 180.951L10.6216 180.951ZM10.6216 200.65L10.6216 210.5L13.6216 210.5L13.6216 200.65L10.6216 200.65ZM10.6216 220.349L10.6216 230.199L13.6216 230.199L13.6216 220.349L10.6216 220.349ZM10.6216 240.048L10.6216 249.897L13.6216 249.897L13.6216 240.048L10.6216 240.048ZM10.6216 259.747L10.6216 269.596L13.6216 269.596L13.6216 259.747L10.6216 259.747ZM10.6216 279.446L10.6216 289.295L13.6216 289.295L13.6216 279.446L10.6216 279.446ZM10.6216 299.145L10.6216 308.994L13.6216 308.994L13.6216 299.145L10.6216 299.145ZM10.6216 318.843L10.6216 328.693L13.6216 328.693L13.6216 318.843L10.6216 318.843ZM10.6216 338.542L10.6216 348.392L13.6216 348.392L13.6216 338.542L10.6216 338.542ZM10.6216 358.241L10.6216 368.091L13.6216 368.091L13.6216 358.241L10.6216 358.241ZM10.6216 377.94L10.6216 387.789L13.6216 387.789L13.6216 377.94L10.6216 377.94ZM10.6216 397.639L10.6216 407.488L13.6216 407.488L13.6216 397.639L10.6216 397.639ZM10.6216 417.338L10.6216 427.187L13.6216 427.187L13.6216 417.338L10.6216 417.338ZM10.6216 437.037L10.6216 446.886L13.6216 446.886L13.6216 437.037L10.6216 437.037ZM10.6216 456.735L10.6216 466.585L13.6216 466.585L13.6216 456.735L10.6216 456.735ZM10.6216 476.434L10.6216 486.284L13.6216 486.284L13.6216 476.434L10.6216 476.434ZM10.6216 496.133L10.6216 505.982L13.6216 505.982L13.6216 496.133L10.6216 496.133ZM10.6216 515.832L10.6216 525.681L13.6216 525.681L13.6216 515.832L10.6216 515.832ZM10.6216 535.531L10.6216 545.38L13.6216 545.38L13.6216 535.531L10.6216 535.531ZM10.6216 555.23L10.6216 565.079L13.6216 565.079L13.6216 555.23L10.6216 555.23ZM10.6216 574.928L10.6216 584.778L13.6216 584.778L13.6216 574.928L10.6216 574.928ZM10.6216 594.627L10.6216 604.477L13.6216 604.477L13.6216 594.627L10.6216 594.627ZM10.6216 614.326L10.6216 619.251L13.6216 619.251L13.6216 614.326L10.6216 614.326Z" fill="#4D708A" fill-opacity="0.6"/>
</g>
<defs>
<filter id="filter0_d_42_44" x="0.121582" y="0.586456" width="24" height="634.665" filterUnits="userSpaceOnUse" color-interpolation-filters="sRGB">
<feFlood flood-opacity="0" result="BackgroundImageFix"/>
<feColorMatrix in="SourceAlpha" type="matrix" values="0 0 0 0 0 0 0 0 0 0 0 0 0 0 0 0 0 0 127 0" result="hardAlpha"/>
<feOffset dy="4"/>
<feGaussianBlur stdDeviation="2"/>
<feComposite in2="hardAlpha" operator="out"/>
<feColorMatrix type="matrix" values="0 0 0 0 0 0 0 0 0 0 0 0 0 0 0 0 0 0 0.2 0"/>
<feBlend mode="normal" in2="BackgroundImageFix" result="effect1_dropShadow_42_44"/>
<feBlend mode="normal" in="SourceGraphic" in2="effect1_dropShadow_42_44" result="shape"/>
</filter>
</defs>
</svg>
