<svg width="202" height="68" viewBox="0 0 202 68" fill="none" xmlns="http://www.w3.org/2000/svg">
<path d="M18.7416 42.6147C17.0211 42.6147 15.3955 42.3189 13.8649 41.7273C12.3461 41.1357 11.0112 40.3086 9.86027 39.2461C8.72117 38.1715 7.81939 36.8978 7.15491 35.4248C6.49044 33.9518 6.1582 32.3339 6.1582 30.571C6.1582 28.9169 6.49636 27.3534 7.17271 25.8804C7.84905 24.4074 8.8161 23.0612 10.0738 21.8417C11.3316 20.6101 12.8563 19.5295 14.648 18.5999C16.4397 17.6581 18.445 16.8974 20.6639 16.3179L19.3112 15.358C18.4688 14.7785 17.8636 14.0963 17.4957 13.3115C17.1279 12.5146 16.944 11.6996 16.944 10.8665C16.944 10.2628 17.027 9.66518 17.1932 9.07355C17.3712 8.48194 17.6145 7.93257 17.923 7.42548C18.2314 6.91837 18.5934 6.47164 19.0086 6.08528C19.424 5.68684 19.8807 5.37896 20.3792 5.16162L20.8063 5.83173C20.0113 6.41128 19.6138 7.07534 19.6138 7.82391C19.6138 8.51212 19.9223 9.24864 20.5393 10.0334C21.1563 10.8182 22.0521 11.6393 23.2269 12.4965C25.2085 13.9695 26.9468 15.358 28.4419 16.6619C29.9488 17.9539 31.2065 19.2397 32.215 20.5195C33.2355 21.7995 34.0067 23.1034 34.5289 24.4315C35.0509 25.7476 35.3298 27.1722 35.3654 28.7056C35.3654 30.2631 35.1458 31.6879 34.7069 32.9797C34.2678 34.2597 33.6627 35.4188 32.8913 36.457C32.1201 37.4834 31.2065 38.3828 30.1505 39.1555C29.0943 39.9283 27.9493 40.5743 26.7153 41.0934C25.4813 41.6006 24.188 41.9809 22.8354 42.2344C21.4826 42.488 20.1181 42.6147 18.7416 42.6147ZM29.3495 30.1908C29.3495 28.9834 29.219 27.8423 28.9579 26.7678C28.7087 25.6812 28.2935 24.6187 27.7121 23.5803C27.1425 22.5419 26.3831 21.5097 25.4339 20.4834C24.4965 19.457 23.3337 18.4005 21.9454 17.3139C21.008 17.5192 20.1181 17.8392 19.2756 18.2738C18.4331 18.6965 17.65 19.2156 16.9262 19.8313C16.2025 20.4351 15.5439 21.1233 14.9506 21.8961C14.3692 22.6567 13.8708 23.4716 13.4556 24.341C13.0521 25.1982 12.7377 26.0977 12.5122 27.0395C12.2868 27.9692 12.1741 28.9109 12.1741 29.8647C12.1741 30.8065 12.2749 31.7363 12.4766 32.6538C12.6784 33.5593 12.9631 34.4286 13.331 35.2618C13.7106 36.0829 14.1734 36.8434 14.7192 37.5438C15.2651 38.244 15.8761 38.8477 16.5524 39.3547C17.2407 39.862 17.9883 40.2604 18.7951 40.5502C19.6138 40.8399 20.48 40.9847 21.3936 40.9847C22.4971 40.9847 23.5295 40.7253 24.4906 40.206C25.4635 39.6748 26.306 38.9382 27.018 37.9964C27.7417 37.0427 28.3112 35.9078 28.7266 34.5917C29.1419 33.2635 29.3495 31.7965 29.3495 30.1908ZM38.6403 39.4635C38.6403 39.0772 38.7115 38.7149 38.8538 38.3768C38.9963 38.0267 39.1921 37.7249 39.4413 37.4713C39.6904 37.2177 39.9811 37.0185 40.3134 36.8737C40.6574 36.7167 41.0193 36.6381 41.399 36.6381C41.7787 36.6381 42.1347 36.7167 42.4669 36.8737C42.811 37.0185 43.1077 37.2177 43.3569 37.4713C43.606 37.7249 43.8018 38.0267 43.9442 38.3768C44.0985 38.7149 44.1755 39.0772 44.1755 39.4635C44.1755 39.8499 44.0985 40.218 43.9442 40.5682C43.8018 40.9064 43.606 41.2022 43.3569 41.4556C43.1077 41.7092 42.811 41.9085 42.4669 42.0533C42.1347 42.2103 41.7787 42.2888 41.399 42.2888C41.0193 42.2888 40.6574 42.2103 40.3134 42.0533C39.9811 41.9085 39.6904 41.7092 39.4413 41.4556C39.1921 41.2022 38.9963 40.9064 38.8538 40.5682C38.7115 40.218 38.6403 39.8499 38.6403 39.4635ZM65.9431 27.9269C65.9431 26.973 65.9015 26.0252 65.8184 25.0835C65.7473 24.1297 65.6167 23.2241 65.4268 22.367C65.2488 21.4976 65.0116 20.6946 64.715 19.9582C64.4302 19.2096 64.0742 18.5636 63.647 18.0204C63.2199 17.4649 62.7156 17.0302 62.1342 16.7163C61.5647 16.4024 60.9121 16.2454 60.1764 16.2454C59.1203 16.2454 58.1711 16.5593 57.3286 17.1872C56.498 17.8029 55.7861 18.6361 55.1927 19.6865C54.5995 20.7249 54.1426 21.9262 53.8223 23.2905C53.5139 24.6428 53.3595 26.0555 53.3595 27.5285C53.3595 29.1585 53.5316 30.6375 53.8758 31.9656C54.2316 33.2817 54.6766 34.4589 55.2107 35.4973C55.7445 36.5355 56.3259 37.4412 56.9548 38.2139C57.5838 38.9866 58.1711 39.6264 58.7169 40.1337C59.2745 40.6407 59.7491 41.0271 60.1408 41.2927C60.5442 41.5583 60.7755 41.7032 60.8349 41.7273H54.0181C53.7927 41.6187 53.4782 41.3771 53.0748 41.0028C52.6832 40.6287 52.2441 40.1457 51.7577 39.5541C51.283 38.9624 50.7966 38.2742 50.2983 37.4894C49.8118 36.6925 49.3668 35.8293 48.9634 34.8995C48.56 33.9579 48.2277 32.9556 47.9666 31.8931C47.7175 30.8186 47.5928 29.7079 47.5928 28.5608C47.5928 27.8604 47.6522 27.0395 47.7708 26.0977C47.9014 25.1559 48.1328 24.19 48.4651 23.2C48.7972 22.1979 49.2482 21.2139 49.8177 20.248C50.3991 19.2821 51.1348 18.4188 52.0247 17.6581C52.9145 16.8974 53.9826 16.2817 55.2284 15.8108C56.4743 15.3399 57.9396 15.1045 59.6246 15.1045C60.74 15.1045 61.7485 15.2131 62.6503 15.4305C63.564 15.6357 64.3886 15.9255 65.1243 16.2998C65.86 16.6619 66.5126 17.0906 67.0822 17.5856C67.6517 18.0806 68.156 18.612 68.5951 19.1795C69.034 18.612 69.5561 18.0806 70.1612 17.5856C70.7665 17.0906 71.4606 16.6619 72.2437 16.2998C73.0267 15.9255 73.9108 15.6357 74.8956 15.4305C75.8924 15.2131 77.0017 15.1045 78.2239 15.1045C79.8613 15.1045 81.303 15.2916 82.549 15.6659C83.8067 16.0402 84.8924 16.5472 85.8061 17.1872C86.7316 17.815 87.4969 18.5455 88.102 19.3787C88.7191 20.1996 89.2115 21.0629 89.5794 21.9684C89.9591 22.862 90.2259 23.7735 90.3802 24.7032C90.5345 25.6208 90.6117 26.484 90.6117 27.2931C90.6117 28.8143 90.3861 30.2029 89.9352 31.4585C89.4844 32.7022 88.903 33.825 88.191 34.8272C87.4792 35.8172 86.6782 36.6986 85.7883 37.4713C84.9101 38.244 84.038 38.9141 83.1719 39.4816C82.3057 40.0369 81.4928 40.5018 80.7334 40.8761C79.986 41.2383 79.3808 41.5221 78.918 41.7273H77.3518C77.4112 41.7032 77.6366 41.5583 78.0281 41.2927C78.4197 41.015 78.8943 40.6165 79.452 40.0973C80.0097 39.5782 80.603 38.9262 81.2319 38.1414C81.8607 37.3566 82.4421 36.4329 82.9761 35.3704C83.5101 34.3079 83.9549 33.1066 84.311 31.7664C84.667 30.4141 84.845 28.9109 84.845 27.2568C84.845 25.5545 84.6492 24.0211 84.2576 22.6567C83.8661 21.2922 83.338 20.1392 82.6735 19.1975C82.0209 18.2437 81.2615 17.5131 80.3953 17.0061C79.5292 16.499 78.6214 16.2454 77.6721 16.2454C76.9127 16.2454 76.2364 16.4024 75.6432 16.7163C75.0499 17.0302 74.5278 17.4649 74.0768 18.0204C73.6261 18.5636 73.2404 19.2096 72.92 19.9582C72.6115 20.6946 72.3564 21.4976 72.1547 22.367C71.953 23.2241 71.8046 24.1297 71.7096 25.0835C71.6267 26.0252 71.5851 26.973 71.5851 27.9269V41.7273H65.9431V27.9269ZM93.7975 32.0018C93.7975 31.2411 93.8924 30.4624 94.0823 29.6655C94.2721 28.8566 94.5628 28.0658 94.9544 27.2931C95.3459 26.5204 95.8385 25.7959 96.4317 25.1197C97.0368 24.4315 97.7429 23.8279 98.5497 23.3086C99.3685 22.7895 100.294 22.379 101.326 22.0772C102.37 21.7752 103.527 21.6244 104.797 21.6244C106.126 21.6244 107.318 21.7631 108.374 22.0409C109.442 22.3186 110.386 22.7049 111.204 23.2C112.023 23.6829 112.729 24.2564 113.322 24.9205C113.916 25.5846 114.402 26.3029 114.782 27.0756C115.162 27.8484 115.44 28.6574 115.618 29.5025C115.796 30.3356 115.885 31.1688 115.885 32.0018C115.885 32.7988 115.796 33.6077 115.618 34.4286C115.44 35.2377 115.156 36.0224 114.764 36.7831C114.384 37.5438 113.898 38.2621 113.305 38.9382C112.723 39.6023 112.017 40.1819 111.187 40.6769C110.368 41.1719 109.425 41.5643 108.357 41.8541C107.301 42.1438 106.114 42.2888 104.797 42.2888C103.527 42.2888 102.376 42.1438 101.344 41.8541C100.312 41.5763 99.3862 41.19 98.5674 40.695C97.7607 40.2 97.0546 39.6204 96.4495 38.9563C95.8562 38.2802 95.3579 37.5619 94.9544 36.8012C94.5628 36.0405 94.2721 35.2497 94.0823 34.4286C93.8924 33.6077 93.7975 32.7988 93.7975 32.0018ZM99.226 31.9295C99.226 33.0763 99.3031 34.1932 99.4575 35.2798C99.6236 36.3665 99.9082 37.3324 100.312 38.1776C100.727 39.0228 101.285 39.711 101.985 40.2423C102.697 40.7614 103.598 41.0331 104.69 41.0572C105.414 41.0572 106.061 40.9365 106.63 40.695C107.2 40.4415 107.698 40.0973 108.125 39.6628C108.552 39.228 108.914 38.721 109.211 38.1414C109.508 37.5619 109.751 36.94 109.941 36.276C110.131 35.612 110.267 34.9238 110.35 34.2113C110.445 33.499 110.504 32.7927 110.528 32.0923C110.528 31.38 110.492 30.6555 110.421 29.9191C110.35 29.1826 110.231 28.4763 110.065 27.8002C109.899 27.112 109.674 26.472 109.389 25.8804C109.116 25.2767 108.772 24.7575 108.357 24.3229C107.941 23.8761 107.449 23.526 106.879 23.2724C106.322 23.0188 105.669 22.8921 104.921 22.8921C103.83 22.8921 102.922 23.1457 102.198 23.6528C101.475 24.1478 100.893 24.8119 100.454 25.645C100.015 26.478 99.7006 27.4439 99.5108 28.5427C99.3328 29.6294 99.2378 30.7582 99.226 31.9295ZM127.864 22.9283C127.365 22.9283 126.962 22.9827 126.653 23.0913C126.345 23.1879 126.102 23.3268 125.924 23.5078C125.746 23.6769 125.621 23.8761 125.55 24.1056C125.491 24.3229 125.461 24.5583 125.461 24.8119V35.5335C125.461 36.4753 125.603 37.2721 125.888 37.9241C126.173 38.576 126.541 39.0953 126.992 39.4816C127.443 39.8559 127.941 40.1034 128.487 40.2241C129.044 40.3449 129.59 40.3389 130.124 40.206C130.883 40.0249 131.554 39.7049 132.135 39.2461C132.717 38.7752 133.203 38.2079 133.595 37.5438C133.998 36.8797 134.301 36.1431 134.503 35.3342C134.716 34.5131 134.823 33.6619 134.823 32.7805V24.8119C134.823 24.6307 134.793 24.4315 134.734 24.2142C134.686 23.9968 134.574 23.7976 134.396 23.6165C134.23 23.4233 133.986 23.2604 133.666 23.1275C133.357 22.9947 132.942 22.9283 132.42 22.9283V22.2582H142.618V22.9283C142.132 22.9283 141.729 22.9827 141.408 23.0913C141.1 23.1879 140.857 23.3268 140.679 23.5078C140.501 23.6769 140.376 23.8761 140.305 24.1056C140.245 24.3229 140.216 24.5583 140.216 24.8119V39.1738C140.216 39.3547 140.245 39.5541 140.305 39.7714C140.364 39.9887 140.477 40.1939 140.643 40.3871C140.809 40.5682 141.046 40.7253 141.355 40.858C141.675 40.9908 142.096 41.0572 142.618 41.0572V41.7273H134.823V38.0508C134.574 38.5217 134.277 38.9806 133.933 39.4272C133.589 39.874 133.179 40.2845 132.705 40.6588C132.23 41.0331 131.684 41.3651 131.067 41.6548C130.462 41.9326 129.78 42.1438 129.021 42.2888C128.012 42.4699 127.098 42.5001 126.28 42.3794C125.461 42.2587 124.725 42.0292 124.073 41.6912C123.432 41.353 122.874 40.9245 122.4 40.4052C121.925 39.874 121.527 39.2884 121.207 38.6485C120.899 38.0087 120.667 37.3263 120.513 36.602C120.359 35.8775 120.282 35.1531 120.282 34.4286V24.7032C120.282 24.5221 120.246 24.3289 120.175 24.1237C120.115 23.9184 119.997 23.7313 119.819 23.5622C119.641 23.3811 119.392 23.2301 119.071 23.1094C118.763 22.9887 118.365 22.9283 117.879 22.9283V22.2582H127.864V22.9283ZM166.629 41.5824C165.786 41.8964 165.01 42.1137 164.297 42.2344C163.597 42.3673 162.956 42.4336 162.375 42.4336C161.674 42.4336 160.986 42.2767 160.311 41.9627C159.645 41.6488 159.01 41.2444 158.406 40.7494C157.8 40.2544 157.23 39.6989 156.697 39.0832C156.175 38.4673 155.701 37.8577 155.273 37.254C154.858 36.6502 154.497 36.0829 154.188 35.5515C153.891 35.0204 153.666 34.5917 153.511 34.2657C154.662 34.0725 155.695 33.7284 156.608 33.2334C157 33.0161 157.379 32.7625 157.747 32.4727C158.114 32.1709 158.441 31.8146 158.726 31.4042C159.023 30.9937 159.259 30.5288 159.439 30.0097C159.616 29.4904 159.704 28.8988 159.704 28.2347C159.704 27.3172 159.539 26.5626 159.206 25.971C158.874 25.3673 158.459 24.8904 157.961 24.5402C157.475 24.19 156.94 23.9486 156.359 23.8158C155.789 23.6709 155.267 23.5984 154.793 23.5984C154.317 23.5984 153.921 23.6467 153.6 23.7433C153.292 23.8399 153.043 23.9667 152.853 24.1237C152.674 24.2805 152.549 24.4677 152.48 24.6851C152.408 24.8904 152.372 25.1077 152.372 25.337V39.1738C152.372 39.3547 152.402 39.5541 152.461 39.7714C152.521 39.9887 152.633 40.1939 152.799 40.3871C152.978 40.5682 153.221 40.7253 153.529 40.858C153.85 40.9908 154.27 41.0572 154.793 41.0572V41.7273H144.754V41.0572C145.253 41.0572 145.656 41.009 145.965 40.9124C146.285 40.8036 146.534 40.6648 146.712 40.4958C146.89 40.3146 147.009 40.1154 147.068 39.8981C147.139 39.6688 147.175 39.4272 147.175 39.1738V24.7394C147.175 24.5583 147.139 24.3651 147.068 24.1598C147.009 23.9425 146.89 23.7494 146.712 23.5803C146.534 23.3992 146.285 23.2544 145.965 23.1457C145.656 23.0249 145.253 22.9646 144.754 22.9646V22.2582H154.793C156.075 22.2582 157.332 22.373 158.565 22.6023C159.8 22.8196 160.898 23.1698 161.858 23.6528C162.832 24.1357 163.615 24.7575 164.208 25.5181C164.802 26.2668 165.098 27.1722 165.098 28.2347C165.098 29.0799 164.914 29.8225 164.546 30.4624C164.179 31.1023 163.691 31.6638 163.087 32.1467C162.481 32.6176 161.787 33.0161 161.005 33.342C160.233 33.6559 159.439 33.9155 158.62 34.1208C159.07 34.966 159.592 35.8051 160.186 36.6381C160.778 37.4592 161.378 38.1957 161.983 38.8477C162.589 39.4997 163.17 40.0249 163.728 40.4233C164.297 40.8218 164.777 41.021 165.169 41.021C165.288 41.021 165.455 41.009 165.667 40.9847C165.894 40.9486 166.143 40.8761 166.415 40.7674L166.629 41.5824ZM179.443 21.4794C180.333 21.4794 181.147 21.576 181.882 21.7692C182.629 21.9624 183.288 22.1979 183.858 22.4756C184.44 22.7533 184.938 23.0491 185.352 23.363C185.779 23.6769 186.118 23.9606 186.367 24.2142C186.735 23.9245 187.132 23.6648 187.559 23.4355C187.986 23.1939 188.42 22.9887 188.859 22.8196C189.298 22.6505 189.731 22.5238 190.158 22.4393C190.597 22.3427 191.013 22.2824 191.403 22.2582L191.617 22.8559C191.144 23.0491 190.715 23.363 190.336 23.7976C190.015 24.1719 189.719 24.6851 189.446 25.337C189.174 25.989 189.025 26.8403 189.001 27.8907C188.99 28.5064 188.984 29.1464 188.984 29.8105C188.984 30.4746 188.978 31.1325 188.966 31.7845C188.966 32.4245 188.96 33.0402 188.947 33.6318C188.947 34.2113 188.941 34.7306 188.931 35.1893C188.931 35.6481 188.931 36.0224 188.931 36.3122C188.931 36.5899 188.931 36.7528 188.931 36.8012C188.931 37.8516 189.06 38.7029 189.321 39.3547C189.594 40.0068 189.897 40.52 190.229 40.8942C190.621 41.3289 191.06 41.6428 191.546 41.836L191.333 42.4336C190.752 42.4095 190.129 42.3069 189.464 42.1257C188.8 41.9446 188.153 41.6912 187.524 41.3651C186.896 41.0391 186.314 40.6528 185.779 40.206C185.246 39.7473 184.813 39.228 184.481 38.6485C184.244 39.1073 183.94 39.5541 183.572 39.9887C183.205 40.4233 182.754 40.8096 182.221 41.1478C181.686 41.4859 181.057 41.7575 180.333 41.9627C179.61 42.1801 178.779 42.2888 177.842 42.2888C176.299 42.2888 174.941 42.0111 173.766 41.4556C172.604 40.8881 171.63 40.1517 170.846 39.2461C170.064 38.3286 169.47 37.2962 169.066 36.1492C168.676 35.0021 168.48 33.843 168.48 32.6719C168.48 31.7905 168.58 30.9031 168.782 30.0097C168.997 29.1161 169.305 28.259 169.707 27.4379C170.123 26.6047 170.634 25.826 171.238 25.1016C171.855 24.3771 172.567 23.7494 173.374 23.218C174.192 22.6748 175.107 22.2521 176.115 21.9503C177.124 21.6364 178.234 21.4794 179.443 21.4794ZM179.514 40.3871C180.345 40.3871 181.033 40.1939 181.58 39.8076C182.125 39.4212 182.558 38.9503 182.878 38.395C183.211 37.8396 183.454 37.254 183.609 36.6381C183.762 36.0224 183.869 35.4791 183.929 35.0082L184.071 28.1442C184.048 27.8907 183.999 27.5829 183.929 27.2206C183.869 26.8584 183.774 26.484 183.644 26.0977C183.513 25.7113 183.342 25.325 183.127 24.9386C182.925 24.5402 182.666 24.19 182.345 23.8881C182.025 23.5863 181.639 23.3389 181.188 23.1457C180.749 22.9525 180.233 22.8559 179.639 22.8559C178.749 22.8559 177.942 23.0853 177.219 23.5441C176.495 24.0028 175.878 24.6307 175.368 25.4276C174.858 26.2124 174.46 27.13 174.176 28.1805C173.902 29.2309 173.766 30.3477 173.766 31.5309C173.766 33.0763 173.927 34.4045 174.247 35.5154C174.578 36.6261 175.011 37.5438 175.546 38.2681C176.091 38.9926 176.709 39.5298 177.397 39.88C178.085 40.218 178.791 40.3871 179.514 40.3871Z" fill="url(#paint0_linear_38_72)"/>
<path d="M20.5303 61.8181V46.8241H27.1431V48.4901H22.444V53.2069H26.6115V54.8296H22.444V61.8181H20.5303ZM33.8676 52.1467C33.4139 51.9447 32.9036 51.8438 32.3366 51.8438C31.8122 51.8438 31.3231 51.9376 30.8695 52.125V61.8181H29.0409V50.9567C29.452 50.7547 29.9198 50.5889 30.4442 50.4591C30.9829 50.3149 31.5712 50.2427 32.2091 50.2427C32.5493 50.2427 32.8895 50.2643 33.2297 50.3076C33.5699 50.3509 33.8889 50.4302 34.1865 50.5456L33.8676 52.1467ZM42.9758 56.1494C42.9758 57.0438 42.8979 57.8587 42.7419 58.5943C42.5861 59.3156 42.3451 59.9358 42.019 60.455C41.7072 60.9743 41.3032 61.3781 40.807 61.6667C40.3251 61.9552 39.751 62.0994 39.0847 62.0994C38.4185 62.0994 37.8373 61.9552 37.3411 61.6667C36.845 61.3781 36.4339 60.9743 36.1078 60.455C35.796 59.9358 35.5621 59.3156 35.4061 58.5943C35.2503 57.8587 35.1722 57.0438 35.1722 56.1494C35.1722 55.2696 35.2503 54.4618 35.4061 53.7261C35.5621 52.9905 35.796 52.3631 36.1078 51.8438C36.4339 51.3101 36.845 50.899 37.3411 50.6105C37.8373 50.322 38.4185 50.1778 39.0847 50.1778C39.751 50.1778 40.3251 50.322 40.807 50.6105C41.3032 50.899 41.7072 51.3101 42.019 51.8438C42.3451 52.3631 42.5861 52.9905 42.7419 53.7261C42.8979 54.4618 42.9758 55.2696 42.9758 56.1494ZM41.0621 56.1494C41.0621 55.5147 41.0267 54.9378 40.9558 54.4185C40.885 53.8849 40.7716 53.4305 40.6156 53.0554C40.4598 52.666 40.2541 52.3703 39.999 52.1683C39.7438 51.952 39.4391 51.8438 39.0847 51.8438C38.7162 51.8438 38.4042 51.952 38.1491 52.1683C37.9082 52.3703 37.7026 52.666 37.5324 53.0554C37.3766 53.4305 37.2632 53.8849 37.1922 54.4185C37.1215 54.9378 37.0859 55.5147 37.0859 56.1494C37.0859 56.7841 37.1215 57.3683 37.1922 57.902C37.2632 58.4212 37.3766 58.8683 37.5324 59.2434C37.7026 59.6185 37.9082 59.9141 38.1491 60.1305C38.4042 60.3325 38.7162 60.4334 39.0847 60.4334C39.4391 60.4334 39.7438 60.3325 39.999 60.1305C40.2541 59.9141 40.4598 59.6185 40.6156 59.2434C40.7716 58.8683 40.885 58.4212 40.9558 57.902C41.0267 57.3683 41.0621 56.7841 41.0621 56.1494ZM45.6527 50.7836C46.1771 50.6249 46.7443 50.4951 47.3537 50.3941C47.9632 50.2787 48.5232 50.221 49.0335 50.221C49.5864 50.221 50.0896 50.3003 50.5432 50.4591C50.9969 50.6032 51.3796 50.8558 51.6914 51.2163C52.0175 51.5769 52.2655 52.0674 52.4356 52.6876C52.6199 53.2934 52.7121 54.0507 52.7121 54.9594V61.8181H50.8834V55.1109C50.8834 53.9858 50.7417 53.1636 50.4582 52.6443C50.1746 52.125 49.643 51.8654 48.8634 51.8654C48.4523 51.8654 47.9916 51.9376 47.4813 52.0818V61.8181H45.6527V50.7836ZM57.6115 50.4591H60.4183V52.0601H57.6115V58.313C57.6115 59.092 57.7463 59.6401 58.0155 59.9574C58.2991 60.2603 58.6747 60.4118 59.1425 60.4118C59.3835 60.4118 59.6103 60.3758 59.8229 60.3036C60.0497 60.2314 60.241 60.1449 60.397 60.044L60.7585 61.5369C60.1772 61.8831 59.5606 62.0561 58.9086 62.0561C57.8596 62.0561 57.0728 61.7605 56.5484 61.1691C56.0381 60.5632 55.7829 59.568 55.7829 58.1832V47.4083L57.6115 47.0838V50.4591ZM61.1786 54.4618H65.1123V56.2143H61.1786V54.4618ZM68.8557 56.6903C68.8698 57.2385 68.9195 57.7432 69.0045 58.2049C69.0896 58.652 69.2241 59.0487 69.4085 59.3949C69.6069 59.7267 69.862 59.9863 70.174 60.1738C70.4999 60.3612 70.911 60.455 71.4072 60.455C71.8182 60.455 72.194 60.3974 72.5342 60.282C72.8885 60.1521 73.1437 60.044 73.2997 59.9574L73.6399 61.4503C73.4555 61.5801 73.1437 61.7172 72.7043 61.8614C72.279 62.0201 71.7687 62.0994 71.1733 62.0994C70.3936 62.0994 69.7344 61.9552 69.1959 61.6667C68.6713 61.3781 68.239 60.9743 67.8988 60.455C67.5727 59.9358 67.3388 59.3156 67.1971 58.5943C67.0553 57.8731 66.9845 57.0798 66.9845 56.2143C66.9845 54.1229 67.3247 52.5938 68.0051 51.6274C68.6856 50.661 69.5856 50.1778 70.7056 50.1778C71.9671 50.1778 72.8601 50.661 73.3847 51.6274C73.9092 52.5938 74.1715 53.9498 74.1715 55.695C74.1715 55.8538 74.1715 56.0196 74.1715 56.1927C74.1715 56.3514 74.1643 56.5172 74.1502 56.6903H68.8557ZM70.7056 51.7572C70.0959 51.7572 69.6494 52.0674 69.366 52.6876C69.0965 53.3078 68.9336 54.1372 68.8769 55.1758H72.2578C72.2578 54.1229 72.1515 53.2934 71.9388 52.6876C71.7262 52.0674 71.315 51.7572 70.7056 51.7572ZM76.8621 50.7836C77.3867 50.6249 77.9537 50.4951 78.5632 50.3941C79.1728 50.2787 79.7327 50.221 80.243 50.221C80.7958 50.221 81.2992 50.3003 81.7527 50.4591C82.2063 50.6032 82.5891 50.8558 82.9009 51.2163C83.227 51.5769 83.475 52.0674 83.6451 52.6876C83.8295 53.2934 83.9215 54.0507 83.9215 54.9594V61.8181H82.0929V55.1109C82.0929 53.9858 81.9512 53.1636 81.6676 52.6443C81.3842 52.125 80.8526 51.8654 80.0729 51.8654C79.6619 51.8654 79.2011 51.9376 78.6908 52.0818V61.8181H76.8621V50.7836ZM91.9254 52.1683C91.5144 51.9376 91.0749 51.8221 90.6071 51.8221C90.2528 51.8221 89.941 51.8943 89.6715 52.0385C89.4023 52.1827 89.1684 52.4207 88.9698 52.7525C88.7856 53.0843 88.6439 53.5241 88.5446 54.0723C88.4454 54.6205 88.3957 55.2983 88.3957 56.1061C88.3957 57.664 88.5943 58.7818 88.9911 59.4598C89.4023 60.1232 90.0189 60.455 90.841 60.455C90.997 60.455 91.1671 60.4478 91.3513 60.4334C91.5357 60.4045 91.7271 60.3612 91.9254 60.3036V52.1683ZM91.9254 45.3529L93.7541 45.0283V61.5152C93.3572 61.6883 92.9035 61.8254 92.3932 61.9263C91.8829 62.0418 91.3656 62.0994 90.841 62.0994C89.3101 62.0994 88.1974 61.6018 87.5027 60.6065C86.8223 59.6112 86.4821 58.1111 86.4821 56.1061C86.4821 55.1974 86.553 54.3825 86.6947 53.6612C86.8507 52.9256 87.0846 52.3054 87.3964 51.8005C87.7225 51.2812 88.1336 50.8845 88.6296 50.6105C89.1258 50.322 89.7141 50.1778 90.3945 50.1778C90.7206 50.1778 90.997 50.2138 91.2237 50.286C91.4648 50.3436 91.6987 50.4302 91.9254 50.5456V45.3529ZM106.004 52.1683C105.593 51.9376 105.154 51.8221 104.686 51.8221C104.331 51.8221 104.019 51.8943 103.75 52.0385C103.481 52.1827 103.247 52.4207 103.048 52.7525C102.864 53.0843 102.722 53.5241 102.623 54.0723C102.524 54.6205 102.474 55.2983 102.474 56.1061C102.474 57.664 102.673 58.7818 103.07 59.4598C103.481 60.1232 104.097 60.455 104.92 60.455C105.075 60.455 105.246 60.4478 105.43 60.4334C105.614 60.4045 105.806 60.3612 106.004 60.3036V52.1683ZM106.004 45.3529L107.833 45.0283V61.5152C107.436 61.6883 106.982 61.8254 106.472 61.9263C105.962 62.0418 105.444 62.0994 104.92 62.0994C103.389 62.0994 102.276 61.6018 101.581 60.6065C100.901 59.6112 100.561 58.1111 100.561 56.1061C100.561 55.1974 100.631 54.3825 100.773 53.6612C100.929 52.9256 101.163 52.3054 101.475 51.8005C101.801 51.2812 102.212 50.8845 102.708 50.6105C103.204 50.322 103.793 50.1778 104.473 50.1778C104.799 50.1778 105.075 50.2138 105.302 50.286C105.543 50.3436 105.777 50.4302 106.004 50.5456V45.3529ZM112.379 56.6903C112.393 57.2385 112.442 57.7432 112.527 58.2049C112.612 58.652 112.747 59.0487 112.931 59.3949C113.13 59.7267 113.385 59.9863 113.697 60.1738C114.023 60.3612 114.434 60.455 114.93 60.455C115.341 60.455 115.717 60.3974 116.057 60.282C116.412 60.1521 116.667 60.044 116.823 59.9574L117.163 61.4503C116.979 61.5801 116.667 61.7172 116.227 61.8614C115.802 62.0201 115.292 62.0994 114.696 62.0994C113.917 62.0994 113.258 61.9552 112.719 61.6667C112.194 61.3781 111.762 60.9743 111.422 60.455C111.096 59.9358 110.862 59.3156 110.72 58.5943C110.578 57.8731 110.507 57.0798 110.507 56.2143C110.507 54.1229 110.848 52.5938 111.528 51.6274C112.209 50.661 113.109 50.1778 114.229 50.1778C115.49 50.1778 116.383 50.661 116.908 51.6274C117.432 52.5938 117.694 53.9498 117.694 55.695C117.694 55.8538 117.694 56.0196 117.694 56.1927C117.694 56.3514 117.687 56.5172 117.673 56.6903H112.379ZM114.229 51.7572C113.619 51.7572 113.172 52.0674 112.889 52.6876C112.62 53.3078 112.457 54.1372 112.4 55.1758H115.781C115.781 54.1229 115.674 53.2934 115.462 52.6876C115.249 52.0674 114.838 51.7572 114.229 51.7572ZM122.875 59.6329C123.046 59.0559 123.223 58.378 123.407 57.599C123.606 56.8201 123.797 56.0196 123.981 55.1974C124.166 54.3609 124.336 53.5314 124.491 52.7092C124.662 51.887 124.803 51.137 124.917 50.4591H126.745C126.561 51.4111 126.341 52.4136 126.086 53.4665C125.845 54.5194 125.59 55.558 125.321 56.5821C125.066 57.5918 124.803 58.551 124.534 59.4598C124.265 60.3685 124.017 61.1547 123.79 61.8181H121.897C121.671 61.1547 121.423 60.3685 121.153 59.4598C120.884 58.551 120.615 57.5918 120.345 56.5821C120.09 55.558 119.835 54.5194 119.58 53.4665C119.339 52.4136 119.126 51.4111 118.942 50.4591H120.877C120.99 51.137 121.125 51.887 121.281 52.7092C121.451 53.5314 121.621 54.3609 121.791 55.1974C121.975 56.0196 122.16 56.8201 122.344 57.599C122.528 58.378 122.705 59.0559 122.875 59.6329ZM129.78 56.6903C129.794 57.2385 129.843 57.7432 129.928 58.2049C130.014 58.652 130.148 59.0487 130.332 59.3949C130.531 59.7267 130.786 59.9863 131.098 60.1738C131.424 60.3612 131.835 60.455 132.331 60.455C132.742 60.455 133.118 60.3974 133.458 60.282C133.812 60.1521 134.068 60.044 134.224 59.9574L134.564 61.4503C134.379 61.5801 134.068 61.7172 133.628 61.8614C133.203 62.0201 132.693 62.0994 132.097 62.0994C131.318 62.0994 130.658 61.9552 130.12 61.6667C129.595 61.3781 129.163 60.9743 128.823 60.455C128.497 59.9358 128.263 59.3156 128.121 58.5943C127.979 57.8731 127.908 57.0798 127.908 56.2143C127.908 54.1229 128.249 52.5938 128.929 51.6274C129.61 50.661 130.51 50.1778 131.63 50.1778C132.891 50.1778 133.784 50.661 134.309 51.6274C134.833 52.5938 135.095 53.9498 135.095 55.695C135.095 55.8538 135.095 56.0196 135.095 56.1927C135.095 56.3514 135.088 56.5172 135.074 56.6903H129.78ZM131.63 51.7572C131.02 51.7572 130.573 52.0674 130.29 52.6876C130.02 53.3078 129.858 54.1372 129.801 55.1758H133.182C133.182 54.1229 133.075 53.2934 132.863 52.6876C132.65 52.0674 132.239 51.7572 131.63 51.7572ZM140.678 62.0345C139.629 62.0056 138.878 61.746 138.424 61.2556C137.97 60.7507 137.744 59.9574 137.744 58.8756V45.3529L139.572 45.0283V58.9189C139.572 59.4238 139.671 59.7916 139.87 60.0223C140.068 60.2387 140.416 60.3901 140.912 60.4767L140.678 62.0345ZM150.122 56.1494C150.122 57.0438 150.044 57.8587 149.888 58.5943C149.732 59.3156 149.491 59.9358 149.165 60.455C148.854 60.9743 148.45 61.3781 147.953 61.6667C147.471 61.9552 146.897 62.0994 146.231 62.0994C145.565 62.0994 144.984 61.9552 144.487 61.6667C143.991 61.3781 143.58 60.9743 143.254 60.455C142.942 59.9358 142.709 59.3156 142.553 58.5943C142.397 57.8587 142.319 57.0438 142.319 56.1494C142.319 55.2696 142.397 54.4618 142.553 53.7261C142.709 52.9905 142.942 52.3631 143.254 51.8438C143.58 51.3101 143.991 50.899 144.487 50.6105C144.984 50.322 145.565 50.1778 146.231 50.1778C146.897 50.1778 147.471 50.322 147.953 50.6105C148.45 50.899 148.854 51.3101 149.165 51.8438C149.491 52.3631 149.732 52.9905 149.888 53.7261C150.044 54.4618 150.122 55.2696 150.122 56.1494ZM148.209 56.1494C148.209 55.5147 148.173 54.9378 148.102 54.4185C148.031 53.8849 147.918 53.4305 147.762 53.0554C147.606 52.666 147.401 52.3703 147.145 52.1683C146.89 51.952 146.585 51.8438 146.231 51.8438C145.862 51.8438 145.551 51.952 145.295 52.1683C145.054 52.3703 144.849 52.666 144.679 53.0554C144.523 53.4305 144.41 53.8849 144.339 54.4185C144.268 54.9378 144.232 55.5147 144.232 56.1494C144.232 56.7841 144.268 57.3683 144.339 57.902C144.41 58.4212 144.523 58.8683 144.679 59.2434C144.849 59.6185 145.054 59.9141 145.295 60.1305C145.551 60.3325 145.862 60.4334 146.231 60.4334C146.585 60.4334 146.89 60.3325 147.145 60.1305C147.401 59.9141 147.606 59.6185 147.762 59.2434C147.918 58.8683 148.031 58.4212 148.102 57.902C148.173 57.3683 148.209 56.7841 148.209 56.1494ZM154.607 60.1089C155.018 60.3396 155.457 60.455 155.925 60.455C156.279 60.455 156.592 60.3829 156.861 60.2387C157.129 60.0945 157.357 59.8565 157.541 59.5247C157.74 59.1929 157.889 58.753 157.987 58.2049C158.086 57.6567 158.136 56.9789 158.136 56.1711C158.136 54.6132 157.937 53.5025 157.541 52.839C157.158 52.1611 156.542 51.8221 155.691 51.8221C155.535 51.8221 155.365 51.8365 155.181 51.8654C154.997 51.8798 154.806 51.916 154.607 51.9736V60.1089ZM154.607 65.8209H152.778V50.762C153.174 50.5889 153.621 50.4518 154.118 50.3509C154.628 50.2354 155.146 50.1778 155.67 50.1778C156.449 50.1778 157.116 50.3149 157.669 50.5889C158.235 50.8629 158.689 51.2596 159.029 51.7789C159.383 52.2838 159.638 52.9112 159.795 53.6612C159.965 54.3969 160.05 55.2407 160.05 56.1927C160.05 58.1111 159.745 59.5752 159.136 60.5849C158.54 61.5945 157.562 62.0994 156.201 62.0994C155.875 62.0994 155.585 62.0634 155.33 61.9912C155.074 61.9336 154.833 61.847 154.607 61.7316V65.8209ZM163.979 56.6903C163.993 57.2385 164.043 57.7432 164.128 58.2049C164.213 58.652 164.348 59.0487 164.532 59.3949C164.731 59.7267 164.986 59.9863 165.297 60.1738C165.624 60.3612 166.034 60.455 166.531 60.455C166.942 60.455 167.317 60.3974 167.658 60.282C168.012 60.1521 168.267 60.044 168.423 59.9574L168.763 61.4503C168.58 61.5801 168.267 61.7172 167.828 61.8614C167.402 62.0201 166.892 62.0994 166.297 62.0994C165.518 62.0994 164.859 61.9552 164.319 61.6667C163.795 61.3781 163.362 60.9743 163.022 60.455C162.696 59.9358 162.462 59.3156 162.321 58.5943C162.179 57.8731 162.108 57.0798 162.108 56.2143C162.108 54.1229 162.448 52.5938 163.129 51.6274C163.809 50.661 164.71 50.1778 165.829 50.1778C167.091 50.1778 167.984 50.661 168.508 51.6274C169.032 52.5938 169.295 53.9498 169.295 55.695C169.295 55.8538 169.295 56.0196 169.295 56.1927C169.295 56.3514 169.287 56.5172 169.274 56.6903H163.979ZM165.829 51.7572C165.22 51.7572 164.773 52.0674 164.489 52.6876C164.221 53.3078 164.057 54.1372 164 55.1758H167.381C167.381 54.1229 167.275 53.2934 167.062 52.6876C166.85 52.0674 166.438 51.7572 165.829 51.7572ZM176.813 52.1467C176.359 51.9447 175.849 51.8438 175.282 51.8438C174.757 51.8438 174.267 51.9376 173.815 52.125V61.8181H171.986V50.9567C172.396 50.7547 172.864 50.5889 173.39 50.4591C173.927 50.3149 174.517 50.2427 175.154 50.2427C175.495 50.2427 175.835 50.2643 176.175 50.3076C176.515 50.3509 176.834 50.4302 177.132 50.5456L176.813 52.1467Z" fill="url(#paint1_linear_38_72)"/>
<path d="M2.0957 55.8063V52.9318L15.8104 44.4009L17.4963 47.4145L5.87751 54.3691L17.4963 61.3236L15.8104 64.3372L2.0957 55.8063Z" fill="#745F5F"/>
<path d="M179.962 65.8828L178.276 62.8691L189.895 55.9146L178.276 48.96L179.962 45.9464L193.677 54.4773V57.3519L179.962 65.8828Z" fill="#745F5F"/>
<defs>
<linearGradient id="paint0_linear_38_72" x1="98.7218" y1="4.63641" x2="98.7218" y2="44.8182" gradientUnits="userSpaceOnUse">
<stop stop-color="#826A6A"/>
<stop offset="0.171875" stop-color="#967E7E"/>
<stop offset="0.291667" stop-color="#A68C8C"/>
<stop offset="0.4375" stop-color="#AE9999"/>
<stop offset="0.552083" stop-color="#BEA2A2"/>
<stop offset="0.651042" stop-color="#C7AFAF"/>
<stop offset="0.760417" stop-color="#C1ACAC"/>
<stop offset="0.854167" stop-color="#C2A4A4"/>
<stop offset="0.96875" stop-color="#B9A3A3"/>
<stop offset="0.989583" stop-color="#AD9D9D"/>
</linearGradient>
<linearGradient id="paint1_linear_38_72" x1="98.481" y1="41.7272" x2="98.481" y2="66.4545" gradientUnits="userSpaceOnUse">
<stop stop-color="#745F5F"/>
<stop offset="1" stop-color="#A68C8C"/>
</linearGradient>
</defs>
</svg>
